<svg data-v-423bf9ae="" xmlns="http://www.w3.org/2000/svg" viewBox="0 0 345 90" class="iconLeft"><!----><defs data-v-423bf9ae=""><linearGradient data-v-423bf9ae="" gradientTransform="rotate(25)" id="3586a777-12be-4a43-89b0-e458cf832b31" x1="0%" y1="0%" x2="100%" y2="0%"><stop data-v-423bf9ae="" offset="0%" style="stop-color: rgb(87, 72, 81); stop-opacity: 1;"></stop><stop data-v-423bf9ae="" offset="100%" style="stop-color: rgb(149, 168, 177); stop-opacity: 1;"></stop></linearGradient></defs><!----><g data-v-423bf9ae="" id="acb2c6c2-e491-4ddc-9fa2-6b020751c5eb" fill="#ffffff" transform="matrix(5.267779035574817,0,0,5.267779035574817,108.2089560107559,-14.394208523956465)"><path d="M3.75 14.40L0.34 14.40L0.38 14.11L1.46 13.90L1.46 6.51L0.35 6.36L0.41 6.12L0.41 6.12Q0.58 6.09 1.03 6.02L1.03 6.02L1.03 6.02Q1.48 5.94 1.71 5.91L1.71 5.91L1.71 5.91Q1.93 5.88 2.34 5.84L2.34 5.84L2.34 5.84Q2.75 5.81 3.17 5.81L3.17 5.81L3.17 5.81Q3.86 5.81 4.45 5.96L4.45 5.96L4.45 5.96Q5.04 6.10 5.50 6.40L5.50 6.40L5.50 6.40Q5.96 6.69 6.22 7.18L6.22 7.18L6.22 7.18Q6.48 7.66 6.48 8.29L6.48 8.29L6.48 8.29Q6.48 8.90 6.20 9.43L6.20 9.43L6.20 9.43Q5.92 9.97 5.46 10.33L5.46 10.33L5.46 10.33Q5.00 10.69 4.40 10.90L4.40 10.90L4.40 10.90Q3.79 11.10 3.16 11.10L3.16 11.10L3.16 11.10Q2.88 11.10 2.82 11.09L2.82 11.09L2.75 10.80L3.12 10.78L3.12 10.78Q3.78 10.75 4.28 10.55L4.28 10.55L4.28 10.55Q4.77 10.36 5.06 10.03L5.06 10.03L5.06 10.03Q5.35 9.70 5.49 9.30L5.49 9.30L5.49 9.30Q5.63 8.90 5.63 8.43L5.63 8.43L5.63 8.43Q5.63 7.98 5.47 7.57L5.47 7.57L5.47 7.57Q5.30 7.16 4.98 6.83L4.98 6.83L4.98 6.83Q4.66 6.50 4.13 6.31L4.13 6.31L4.13 6.31Q3.61 6.11 2.96 6.11L2.96 6.11L2.21 6.15L2.21 13.95L3.81 14.08L3.75 14.40ZM8.13 6.24L8.13 6.24L8.13 6.24Q8.13 5.58 8.55 5.58L8.55 5.58L8.55 5.58Q8.99 5.58 8.99 6.24L8.99 6.24L8.99 6.24Q8.99 6.94 8.56 6.94L8.56 6.94L8.56 6.94Q8.13 6.94 8.13 6.24ZM9.92 14.40L7.14 14.40L7.23 14.18L8.26 13.99L8.26 9.01L7.21 8.82L7.23 8.63L8.85 8.50L8.90 8.56L8.90 13.99L9.99 14.17L9.92 14.40ZM12.93 14.40L10.66 14.40L10.72 14.18L11.46 14.01L13.43 11.48L11.63 8.91L10.82 8.76L10.85 8.53L13.26 8.53L13.21 8.75L12.43 8.91L13.88 10.96L15.43 8.95L14.48 8.76L14.55 8.53L16.75 8.53L16.69 8.76L15.98 8.93L14.12 11.31L16.06 14.03L16.83 14.18L16.79 14.40L14.29 14.40L14.36 14.20L15.22 14.03L13.69 11.84L12.02 14.01L12.99 14.17L12.93 14.40ZM18.31 11.03L18.31 11.03L20.95 10.88L20.95 10.88Q21.02 10.75 21.02 10.26L21.02 10.26L21.02 10.26Q21.02 9.65 20.67 9.23L20.67 9.23L20.67 9.23Q20.31 8.80 19.80 8.80L19.80 8.80L19.80 8.80Q19.12 8.80 18.71 9.39L18.71 9.39L18.71 9.39Q18.31 9.98 18.31 11.03ZM17.59 11.59L17.59 11.59L17.59 11.59Q17.59 10.12 18.34 9.27L18.34 9.27L18.34 9.27Q19.09 8.42 20.13 8.42L20.13 8.42L20.13 8.42Q20.91 8.42 21.31 8.90L21.31 8.90L21.31 8.90Q21.72 9.37 21.72 10.42L21.72 10.42L21.72 10.42Q21.72 10.82 21.59 11.31L21.59 11.31L18.29 11.36L18.29 11.36Q18.29 11.94 18.41 12.42L18.41 12.42L18.41 12.42Q18.53 12.89 18.76 13.26L18.76 13.26L18.76 13.26Q19.00 13.62 19.40 13.83L19.40 13.83L19.40 13.83Q19.79 14.03 20.31 14.03L20.31 14.03L20.31 14.03Q21.21 14.03 21.79 13.46L21.79 13.46L21.90 13.69L21.90 13.69Q21.59 14.10 21.08 14.35L21.08 14.35L21.08 14.35Q20.57 14.59 19.92 14.59L19.92 14.59L19.92 14.59Q18.89 14.59 18.24 13.83L18.24 13.83L18.24 13.83Q17.59 13.07 17.59 11.59ZM25.34 14.40L22.57 14.40L22.63 14.18L23.68 13.99L23.68 6.23L22.63 6.04L22.63 5.84L24.25 5.71L24.31 5.77L24.31 13.99L25.42 14.17L25.34 14.40ZM27.97 6.15L27.97 9.75L30.09 9.75L30.09 9.75Q30.55 9.45 30.88 9.01L30.88 9.01L30.88 9.01Q31.22 8.57 31.22 8.02L31.22 8.02L31.22 8.02Q31.22 7.08 30.58 6.59L30.58 6.59L30.58 6.59Q29.94 6.11 28.81 6.11L28.81 6.11L28.81 6.11Q28.16 6.11 27.97 6.15L27.97 6.15ZM27.97 10.08L27.97 14.03L29.65 14.03L29.65 14.03Q30.29 14.03 30.75 13.85L30.75 13.85L30.75 13.85Q31.21 13.68 31.45 13.38L31.45 13.38L31.45 13.38Q31.69 13.08 31.80 12.74L31.80 12.74L31.80 12.74Q31.91 12.41 31.91 12.02L31.91 12.02L31.91 12.02Q31.91 11.68 31.80 11.36L31.80 11.36L31.80 11.36Q31.69 11.04 31.45 10.74L31.45 10.74L31.45 10.74Q31.21 10.45 30.77 10.26L30.77 10.26L30.77 10.26Q30.32 10.08 29.72 10.08L29.72 10.08L27.97 10.08ZM28.98 14.40L26.07 14.40L26.13 14.11L27.28 13.90L27.28 6.51L26.11 6.36L26.17 6.12L26.17 6.12Q26.30 6.10 26.74 6.03L26.74 6.03L26.74 6.03Q27.17 5.96 27.35 5.94L27.35 5.94L27.35 5.94Q27.52 5.91 27.88 5.87L27.88 5.87L27.88 5.87Q28.23 5.83 28.54 5.82L28.54 5.82L28.54 5.82Q28.85 5.80 29.20 5.80L29.20 5.80L29.20 5.80Q30.49 5.80 31.20 6.38L31.20 6.38L31.20 6.38Q31.92 6.96 31.92 7.79L31.92 7.79L31.92 7.79Q31.92 8.98 30.50 9.76L30.50 9.76L30.50 9.80L30.50 9.80Q31.49 9.86 32.06 10.46L32.06 10.46L32.06 10.46Q32.63 11.05 32.63 11.80L32.63 11.80L32.63 11.80Q32.63 12.22 32.53 12.58L32.53 12.58L32.53 12.58Q32.43 12.95 32.17 13.29L32.17 13.29L32.17 13.29Q31.90 13.63 31.50 13.87L31.50 13.87L31.50 13.87Q31.10 14.11 30.45 14.25L30.45 14.25L30.45 14.25Q29.80 14.40 28.98 14.40L28.98 14.40ZM34.04 13.04L34.04 13.04L34.04 13.04Q34.04 13.47 34.30 13.79L34.30 13.79L34.30 13.79Q34.56 14.10 35 14.10L35 14.10L35 14.10Q35.47 14.10 35.87 13.83L35.87 13.83L35.87 13.83Q36.27 13.56 36.52 13.13L36.52 13.13L36.52 11.44L36.52 11.44Q36.07 11.51 35.73 11.58L35.73 11.58L35.73 11.58Q35.40 11.66 35.06 11.78L35.06 11.78L35.06 11.78Q34.73 11.90 34.52 12.06L34.52 12.06L34.52 12.06Q34.31 12.22 34.18 12.47L34.18 12.47L34.18 12.47Q34.04 12.72 34.04 13.04ZM33.36 13.24L33.36 13.24L33.36 13.24Q33.36 12.37 34.16 11.80L34.16 11.80L34.16 11.80Q34.95 11.23 36.52 11.14L36.52 11.14L36.52 10.87L36.52 10.87Q36.52 9.74 36.25 9.25L36.25 9.25L36.25 9.25Q35.98 8.75 35.22 8.75L35.22 8.75L35.22 8.75Q34.70 8.75 34.47 9.13L34.47 9.13L34.47 9.13Q34.24 9.52 34.15 10.23L34.15 10.23L34.15 10.23Q33.91 10.23 33.75 10.11L33.75 10.11L33.75 10.11Q33.59 9.99 33.59 9.78L33.59 9.78L33.59 9.78Q33.59 9.26 34.23 8.83L34.23 8.83L34.23 8.83Q34.87 8.40 35.58 8.40L35.58 8.40L35.58 8.40Q36.37 8.40 36.76 8.91L36.76 8.91L36.76 8.91Q37.14 9.43 37.14 10.51L37.14 10.51L37.14 12.83L37.14 12.83Q37.14 13.03 37.14 13.14L37.14 13.14L37.14 13.14Q37.15 13.24 37.16 13.40L37.16 13.40L37.16 13.40Q37.18 13.56 37.22 13.64L37.22 13.64L37.22 13.64Q37.26 13.73 37.32 13.83L37.32 13.83L37.32 13.83Q37.39 13.92 37.49 13.98L37.49 13.98L37.49 13.98Q37.60 14.03 37.74 14.05L37.74 14.05L38.19 14.14L38.16 14.38L38.16 14.38Q37.84 14.52 37.47 14.52L37.47 14.52L37.47 14.52Q37.06 14.52 36.84 14.25L36.84 14.25L36.84 14.25Q36.61 13.99 36.61 13.60L36.61 13.60L36.61 13.51L36.58 13.51L36.58 13.51Q36.45 13.88 35.94 14.23L35.94 14.23L35.94 14.23Q35.43 14.57 34.78 14.57L34.78 14.57L34.78 14.57Q34.21 14.57 33.78 14.21L33.78 14.21L33.78 14.21Q33.36 13.84 33.36 13.24ZM38.86 16.35L38.86 16.35L38.86 16.35Q38.86 16.03 39.08 15.84L39.08 15.84L39.08 15.84Q39.29 16.03 39.54 16.11L39.54 16.11L39.54 16.11Q39.79 16.19 40.21 16.19L40.21 16.19L40.21 16.19Q40.55 16.19 40.90 15.84L40.90 15.84L40.90 15.84Q41.24 15.48 41.54 14.72L41.54 14.72L41.71 14.23L39.87 9.03L39.02 8.84L39.06 8.60L41.43 8.60L41.41 8.82L40.54 9.00L42.09 13.25L43.75 9.03L42.87 8.84L42.91 8.60L44.91 8.60L44.90 8.82L44.21 9.03L41.95 14.76L41.95 14.76Q41.49 15.93 41.03 16.45L41.03 16.45L41.03 16.45Q40.56 16.97 39.79 16.97L39.79 16.97L39.79 16.97Q39.39 16.97 39.12 16.81L39.12 16.81L39.12 16.81Q38.86 16.65 38.86 16.35Z"></path></g><!----><g data-v-423bf9ae="" id="f0b2baa4-3a2d-4ad1-a638-d8623aee7233" transform="matrix(2.8125,0,0,2.8125,0,0)" stroke="none" fill="#ffffff"><path d="M11.579 32H32L21.789 14.314z"></path><circle cx="8.683" cy="8.683" r="8.683"></circle></g><!----></svg>